<mxfile host="app.diagrams.net" modified="2023-12-15T10:45:12.087Z" agent="Mozilla/5.0 (Windows NT 10.0; Win64; x64) AppleWebKit/537.36 (KHTML, like Gecko) Chrome/120.0.0.0 Safari/537.36" etag="-MTYfsjNHh4-2sAIOqVG" version="22.1.9" type="onedrive">
  <diagram name="Pagina-1" id="jx0IrZlfUSfup2XO6JcQ">
    <mxGraphModel grid="1" page="1" gridSize="10" guides="1" tooltips="1" connect="1" arrows="1" fold="1" pageScale="1" pageWidth="827" pageHeight="1169" math="0" shadow="0">
      <root>
        <mxCell id="0" />
        <mxCell id="1" parent="0" />
        <mxCell id="FveGNnCPDgA2NS3E9Qgu-1" value="&lt;font style=&quot;font-size: 14px;&quot;&gt;Web App&lt;/font&gt;" style="html=1;whiteSpace=wrap;" vertex="1" parent="1">
          <mxGeometry x="-40" y="186" width="110" height="50" as="geometry" />
        </mxCell>
        <mxCell id="FveGNnCPDgA2NS3E9Qgu-2" value="" style="endArrow=none;html=1;rounded=0;" edge="1" parent="1">
          <mxGeometry relative="1" as="geometry">
            <mxPoint x="70" y="212" as="sourcePoint" />
            <mxPoint x="130" y="212" as="targetPoint" />
          </mxGeometry>
        </mxCell>
        <mxCell id="FveGNnCPDgA2NS3E9Qgu-3" value="" style="shape=providedRequiredInterface;html=1;verticalLabelPosition=bottom;sketch=0;direction=west;" vertex="1" parent="1">
          <mxGeometry x="130" y="203" width="20" height="16.5" as="geometry" />
        </mxCell>
        <mxCell id="FveGNnCPDgA2NS3E9Qgu-4" value="&lt;font style=&quot;font-size: 15px;&quot;&gt;Gateway Interface&lt;/font&gt;" style="text;html=1;strokeColor=none;fillColor=none;align=center;verticalAlign=middle;whiteSpace=wrap;rounded=0;" vertex="1" parent="1">
          <mxGeometry x="111" y="227" width="60" height="30" as="geometry" />
        </mxCell>
        <mxCell id="FveGNnCPDgA2NS3E9Qgu-8" value="" style="endArrow=none;html=1;rounded=0;" edge="1" parent="1">
          <mxGeometry relative="1" as="geometry">
            <mxPoint x="150" y="211.5" as="sourcePoint" />
            <mxPoint x="259" y="212" as="targetPoint" />
          </mxGeometry>
        </mxCell>
        <mxCell id="FveGNnCPDgA2NS3E9Qgu-9" value="" style="rounded=0;whiteSpace=wrap;html=1;" vertex="1" parent="1">
          <mxGeometry x="260" y="187" width="120" height="53" as="geometry" />
        </mxCell>
        <mxCell id="FveGNnCPDgA2NS3E9Qgu-10" value="&lt;span style=&quot;font-size: 14px;&quot;&gt;API Gateway&lt;/span&gt;" style="text;html=1;strokeColor=none;fillColor=none;align=center;verticalAlign=middle;whiteSpace=wrap;rounded=0;" vertex="1" parent="1">
          <mxGeometry x="284" y="199" width="70" height="30" as="geometry" />
        </mxCell>
        <mxCell id="FveGNnCPDgA2NS3E9Qgu-11" value="" style="endArrow=none;html=1;rounded=0;" edge="1" parent="1">
          <mxGeometry relative="1" as="geometry">
            <mxPoint x="380" y="214" as="sourcePoint" />
            <mxPoint x="470" y="214" as="targetPoint" />
          </mxGeometry>
        </mxCell>
        <mxCell id="FveGNnCPDgA2NS3E9Qgu-13" value="" style="shape=providedRequiredInterface;html=1;verticalLabelPosition=bottom;sketch=0;direction=west;" vertex="1" parent="1">
          <mxGeometry x="471" y="205.5" width="20" height="16.5" as="geometry" />
        </mxCell>
        <mxCell id="FveGNnCPDgA2NS3E9Qgu-16" value="" style="endArrow=none;html=1;rounded=0;exitX=0.669;exitY=-0.003;exitDx=0;exitDy=0;exitPerimeter=0;" edge="1" parent="1" source="FveGNnCPDgA2NS3E9Qgu-9">
          <mxGeometry relative="1" as="geometry">
            <mxPoint x="340" y="147" as="sourcePoint" />
            <mxPoint x="340" y="100" as="targetPoint" />
          </mxGeometry>
        </mxCell>
        <mxCell id="FveGNnCPDgA2NS3E9Qgu-18" value="" style="endArrow=none;html=1;rounded=0;" edge="1" parent="1">
          <mxGeometry relative="1" as="geometry">
            <mxPoint x="340" y="100" as="sourcePoint" />
            <mxPoint x="500" y="100" as="targetPoint" />
            <Array as="points">
              <mxPoint x="450" y="100" />
            </Array>
          </mxGeometry>
        </mxCell>
        <mxCell id="FveGNnCPDgA2NS3E9Qgu-19" value="" style="shape=providedRequiredInterface;html=1;verticalLabelPosition=bottom;sketch=0;direction=west;" vertex="1" parent="1">
          <mxGeometry x="500" y="92" width="20" height="16.5" as="geometry" />
        </mxCell>
        <mxCell id="FveGNnCPDgA2NS3E9Qgu-21" value="" style="endArrow=none;html=1;rounded=0;exitX=0.194;exitY=1.006;exitDx=0;exitDy=0;exitPerimeter=0;" edge="1" parent="1" source="FveGNnCPDgA2NS3E9Qgu-9">
          <mxGeometry relative="1" as="geometry">
            <mxPoint x="296" y="559" as="sourcePoint" />
            <mxPoint x="456" y="559" as="targetPoint" />
            <Array as="points">
              <mxPoint x="283" y="310" />
              <mxPoint x="220" y="310" />
              <mxPoint x="220" y="559" />
              <mxPoint x="406" y="559" />
            </Array>
          </mxGeometry>
        </mxCell>
        <mxCell id="FveGNnCPDgA2NS3E9Qgu-22" value="" style="shape=providedRequiredInterface;html=1;verticalLabelPosition=bottom;sketch=0;direction=west;" vertex="1" parent="1">
          <mxGeometry x="456" y="550" width="20" height="16.5" as="geometry" />
        </mxCell>
        <mxCell id="FveGNnCPDgA2NS3E9Qgu-23" value="" style="endArrow=none;html=1;rounded=0;" edge="1" parent="1">
          <mxGeometry relative="1" as="geometry">
            <mxPoint x="491" y="214.67" as="sourcePoint" />
            <mxPoint x="551" y="214.67" as="targetPoint" />
          </mxGeometry>
        </mxCell>
        <mxCell id="FveGNnCPDgA2NS3E9Qgu-24" value="&lt;span style=&quot;font-size: 14px;&quot;&gt;Tournament Manager&lt;/span&gt;" style="html=1;whiteSpace=wrap;" vertex="1" parent="1">
          <mxGeometry x="550" y="178" width="128" height="62" as="geometry" />
        </mxCell>
        <mxCell id="FveGNnCPDgA2NS3E9Qgu-26" value="" style="endArrow=none;html=1;rounded=0;" edge="1" parent="1">
          <mxGeometry relative="1" as="geometry">
            <mxPoint x="520" y="101" as="sourcePoint" />
            <mxPoint x="640" y="101" as="targetPoint" />
          </mxGeometry>
        </mxCell>
        <mxCell id="FveGNnCPDgA2NS3E9Qgu-27" value="&lt;font style=&quot;font-size: 14px;&quot;&gt;Account Manager&lt;/font&gt;" style="whiteSpace=wrap;html=1;align=center;" vertex="1" parent="1">
          <mxGeometry x="640" y="75.25" width="100" height="50" as="geometry" />
        </mxCell>
        <mxCell id="FveGNnCPDgA2NS3E9Qgu-28" value="" style="endArrow=none;html=1;rounded=0;" edge="1" parent="1">
          <mxGeometry relative="1" as="geometry">
            <mxPoint x="476" y="558.83" as="sourcePoint" />
            <mxPoint x="680" y="560" as="targetPoint" />
          </mxGeometry>
        </mxCell>
        <mxCell id="FveGNnCPDgA2NS3E9Qgu-29" value="&lt;font style=&quot;font-size: 17px;&quot;&gt;Battle Manager&lt;/font&gt;" style="whiteSpace=wrap;html=1;align=center;" vertex="1" parent="1">
          <mxGeometry x="650" y="317" width="200" height="82" as="geometry" />
        </mxCell>
        <mxCell id="ndG1EjZOAp5VlCnFYyIg-1" value="&lt;font style=&quot;font-size: 14px;&quot;&gt;API call&lt;/font&gt;" style="html=1;whiteSpace=wrap;" vertex="1" parent="1">
          <mxGeometry x="-39" y="-40" width="110" height="50" as="geometry" />
        </mxCell>
        <mxCell id="ndG1EjZOAp5VlCnFYyIg-2" value="" style="endArrow=none;html=1;rounded=0;" edge="1" parent="1">
          <mxGeometry relative="1" as="geometry">
            <mxPoint x="70" y="-18" as="sourcePoint" />
            <mxPoint x="290" y="-18" as="targetPoint" />
          </mxGeometry>
        </mxCell>
        <mxCell id="ndG1EjZOAp5VlCnFYyIg-4" value="" style="endArrow=none;html=1;rounded=0;" edge="1" parent="1">
          <mxGeometry relative="1" as="geometry">
            <mxPoint x="909" y="564" as="sourcePoint" />
            <mxPoint x="969" y="563.75" as="targetPoint" />
            <Array as="points">
              <mxPoint x="919" y="563.75" />
            </Array>
          </mxGeometry>
        </mxCell>
        <mxCell id="ndG1EjZOAp5VlCnFYyIg-5" value="" style="shape=providedRequiredInterface;html=1;verticalLabelPosition=bottom;sketch=0;direction=east;" vertex="1" parent="1">
          <mxGeometry x="969" y="555.75" width="20" height="16.5" as="geometry" />
        </mxCell>
        <mxCell id="ndG1EjZOAp5VlCnFYyIg-6" value="" style="endArrow=none;html=1;rounded=0;" edge="1" parent="1">
          <mxGeometry relative="1" as="geometry">
            <mxPoint x="989" y="564" as="sourcePoint" />
            <mxPoint x="1059" y="563.75" as="targetPoint" />
          </mxGeometry>
        </mxCell>
        <mxCell id="ndG1EjZOAp5VlCnFYyIg-7" value="&lt;font style=&quot;font-size: 14px;&quot;&gt;Solution Evaluation Service&lt;/font&gt;" style="whiteSpace=wrap;html=1;align=center;" vertex="1" parent="1">
          <mxGeometry x="1059" y="527" width="150" height="75" as="geometry" />
        </mxCell>
        <mxCell id="ndG1EjZOAp5VlCnFYyIg-9" value="" style="endArrow=none;html=1;rounded=0;" edge="1" parent="1">
          <mxGeometry relative="1" as="geometry">
            <mxPoint x="680" y="214" as="sourcePoint" />
            <mxPoint x="752" y="213.5" as="targetPoint" />
          </mxGeometry>
        </mxCell>
        <mxCell id="ndG1EjZOAp5VlCnFYyIg-10" value="" style="shape=providedRequiredInterface;html=1;verticalLabelPosition=bottom;sketch=0;direction=west;" vertex="1" parent="1">
          <mxGeometry x="753" y="205" width="20" height="16.5" as="geometry" />
        </mxCell>
        <mxCell id="ndG1EjZOAp5VlCnFYyIg-11" value="" style="endArrow=none;html=1;rounded=0;entryX=0;entryY=0.5;entryDx=0;entryDy=0;" edge="1" parent="1">
          <mxGeometry relative="1" as="geometry">
            <mxPoint x="773" y="214.17" as="sourcePoint" />
            <mxPoint x="900" y="213.5" as="targetPoint" />
          </mxGeometry>
        </mxCell>
        <mxCell id="ndG1EjZOAp5VlCnFYyIg-12" value="" style="endArrow=none;html=1;rounded=0;exitX=0.403;exitY=-0.051;exitDx=0;exitDy=0;exitPerimeter=0;" edge="1" parent="1">
          <mxGeometry relative="1" as="geometry">
            <mxPoint x="1119.4500000000003" y="526.175" as="sourcePoint" />
            <mxPoint x="1120" y="460" as="targetPoint" />
          </mxGeometry>
        </mxCell>
        <mxCell id="ndG1EjZOAp5VlCnFYyIg-13" value="" style="shape=providedRequiredInterface;html=1;verticalLabelPosition=bottom;sketch=0;direction=south;" vertex="1" parent="1">
          <mxGeometry x="1110" y="439.25" width="18.25" height="20" as="geometry" />
        </mxCell>
        <mxCell id="ndG1EjZOAp5VlCnFYyIg-14" value="" style="endArrow=none;html=1;rounded=0;exitX=0;exitY=0.5;exitDx=0;exitDy=0;exitPerimeter=0;entryX=1.002;entryY=0.895;entryDx=0;entryDy=0;entryPerimeter=0;" edge="1" parent="1" source="ndG1EjZOAp5VlCnFYyIg-13" target="FveGNnCPDgA2NS3E9Qgu-29">
          <mxGeometry relative="1" as="geometry">
            <mxPoint x="1103" y="376.66999999999996" as="sourcePoint" />
            <mxPoint x="950" y="390" as="targetPoint" />
            <Array as="points">
              <mxPoint x="1120" y="390" />
              <mxPoint x="1030" y="390" />
            </Array>
          </mxGeometry>
        </mxCell>
        <mxCell id="ndG1EjZOAp5VlCnFYyIg-16" value="&lt;font style=&quot;font-size: 15px;&quot;&gt;Points Interface&lt;/font&gt;" style="text;html=1;strokeColor=none;fillColor=none;align=center;verticalAlign=middle;whiteSpace=wrap;rounded=0;" vertex="1" parent="1">
          <mxGeometry x="1043" y="426" width="60" height="30" as="geometry" />
        </mxCell>
        <mxCell id="a9UAlpDRO4vWEINNV4x0-2" value="&lt;font style=&quot;font-size: 15px;&quot;&gt;Battle Interface&lt;/font&gt;" style="text;html=1;strokeColor=none;fillColor=none;align=center;verticalAlign=middle;whiteSpace=wrap;rounded=0;" vertex="1" parent="1">
          <mxGeometry x="438" y="574" width="60" height="30" as="geometry" />
        </mxCell>
        <mxCell id="a9UAlpDRO4vWEINNV4x0-3" value="&lt;font style=&quot;font-size: 15px;&quot;&gt;Tournament Interface&lt;/font&gt;" style="text;html=1;strokeColor=none;fillColor=none;align=center;verticalAlign=middle;whiteSpace=wrap;rounded=0;" vertex="1" parent="1">
          <mxGeometry x="451" y="232" width="60" height="30" as="geometry" />
        </mxCell>
        <mxCell id="a9UAlpDRO4vWEINNV4x0-4" value="&lt;font style=&quot;font-size: 15px;&quot;&gt;Account Interface&lt;/font&gt;" style="text;html=1;strokeColor=none;fillColor=none;align=center;verticalAlign=middle;whiteSpace=wrap;rounded=0;" vertex="1" parent="1">
          <mxGeometry x="483" y="50" width="60" height="30" as="geometry" />
        </mxCell>
        <mxCell id="a9UAlpDRO4vWEINNV4x0-5" value="&lt;font style=&quot;font-size: 15px;&quot;&gt;DB Tournament Interface&lt;/font&gt;" style="text;html=1;strokeColor=none;fillColor=none;align=center;verticalAlign=middle;whiteSpace=wrap;rounded=0;" vertex="1" parent="1">
          <mxGeometry x="707" y="231" width="112" height="30" as="geometry" />
        </mxCell>
        <mxCell id="a9UAlpDRO4vWEINNV4x0-8" value="" style="endArrow=none;html=1;rounded=0;" edge="1" parent="1">
          <mxGeometry relative="1" as="geometry">
            <mxPoint x="740" y="99.5" as="sourcePoint" />
            <mxPoint x="830" y="99.5" as="targetPoint" />
          </mxGeometry>
        </mxCell>
        <mxCell id="a9UAlpDRO4vWEINNV4x0-9" value="" style="shape=providedRequiredInterface;html=1;verticalLabelPosition=bottom;sketch=0;direction=west;" vertex="1" parent="1">
          <mxGeometry x="831" y="91" width="20" height="16.5" as="geometry" />
        </mxCell>
        <mxCell id="a9UAlpDRO4vWEINNV4x0-10" value="" style="endArrow=none;html=1;rounded=0;" edge="1" parent="1">
          <mxGeometry relative="1" as="geometry">
            <mxPoint x="851" y="100.16999999999999" as="sourcePoint" />
            <mxPoint x="940" y="100" as="targetPoint" />
          </mxGeometry>
        </mxCell>
        <mxCell id="a9UAlpDRO4vWEINNV4x0-11" value="&lt;font style=&quot;font-size: 15px;&quot;&gt;DB Authentication Interface&lt;/font&gt;" style="text;html=1;strokeColor=none;fillColor=none;align=center;verticalAlign=middle;whiteSpace=wrap;rounded=0;" vertex="1" parent="1">
          <mxGeometry x="764" y="48.5" width="160" height="30" as="geometry" />
        </mxCell>
        <mxCell id="a9UAlpDRO4vWEINNV4x0-12" value="" style="endArrow=none;html=1;rounded=0;" edge="1" parent="1">
          <mxGeometry relative="1" as="geometry">
            <mxPoint x="940" y="100" as="sourcePoint" />
            <mxPoint x="1080" y="100" as="targetPoint" />
          </mxGeometry>
        </mxCell>
        <mxCell id="4QUl3p5zkX5HzNQif8Eu-1" value="" style="endArrow=none;html=1;rounded=0;entryX=0.25;entryY=0;entryDx=0;entryDy=0;" edge="1" parent="1" target="FveGNnCPDgA2NS3E9Qgu-9">
          <mxGeometry relative="1" as="geometry">
            <mxPoint x="290" y="-18" as="sourcePoint" />
            <mxPoint x="390" y="42" as="targetPoint" />
          </mxGeometry>
        </mxCell>
        <mxCell id="4QUl3p5zkX5HzNQif8Eu-2" value="" style="endArrow=none;html=1;rounded=0;" edge="1" parent="1">
          <mxGeometry relative="1" as="geometry">
            <mxPoint x="680" y="560" as="sourcePoint" />
            <mxPoint x="680" y="400" as="targetPoint" />
          </mxGeometry>
        </mxCell>
        <mxCell id="4QUl3p5zkX5HzNQif8Eu-3" value="&lt;font style=&quot;font-size: 15px;&quot;&gt;GitHub Mananger&lt;/font&gt;" style="whiteSpace=wrap;html=1;align=center;" vertex="1" parent="1">
          <mxGeometry x="790" y="530" width="119" height="64" as="geometry" />
        </mxCell>
        <mxCell id="4QUl3p5zkX5HzNQif8Eu-4" value="" style="endArrow=none;html=1;rounded=0;" edge="1" parent="1">
          <mxGeometry relative="1" as="geometry">
            <mxPoint x="750" y="563" as="sourcePoint" />
            <mxPoint x="790" y="563" as="targetPoint" />
          </mxGeometry>
        </mxCell>
        <mxCell id="4QUl3p5zkX5HzNQif8Eu-6" value="&lt;font style=&quot;font-size: 14px;&quot;&gt;Analysis Interface&lt;/font&gt;" style="text;html=1;strokeColor=none;fillColor=none;align=center;verticalAlign=middle;whiteSpace=wrap;rounded=0;" vertex="1" parent="1">
          <mxGeometry x="951" y="512" width="60" height="30" as="geometry" />
        </mxCell>
        <mxCell id="wWhdxqxr-nTp6pwCKcx2-1" value="" style="endArrow=none;html=1;rounded=0;entryX=0.597;entryY=0.987;entryDx=0;entryDy=0;entryPerimeter=0;" edge="1" parent="1">
          <mxGeometry relative="1" as="geometry">
            <mxPoint x="517" y="393" as="sourcePoint" />
            <mxPoint x="567.4160000000002" y="239.19399999999973" as="targetPoint" />
            <Array as="points">
              <mxPoint x="567" y="393" />
            </Array>
          </mxGeometry>
        </mxCell>
        <mxCell id="wWhdxqxr-nTp6pwCKcx2-2" value="" style="shape=providedRequiredInterface;html=1;verticalLabelPosition=bottom;sketch=0;direction=east;" vertex="1" parent="1">
          <mxGeometry x="496" y="384" width="20" height="16.5" as="geometry" />
        </mxCell>
        <mxCell id="wWhdxqxr-nTp6pwCKcx2-3" value="" style="endArrow=none;html=1;rounded=0;" edge="1" parent="1">
          <mxGeometry relative="1" as="geometry">
            <mxPoint x="406" y="393" as="sourcePoint" />
            <mxPoint x="496" y="393" as="targetPoint" />
          </mxGeometry>
        </mxCell>
        <mxCell id="wWhdxqxr-nTp6pwCKcx2-4" value="&lt;font style=&quot;font-size: 15px;&quot;&gt;Badges Manager&lt;/font&gt;" style="whiteSpace=wrap;html=1;align=center;" vertex="1" parent="1">
          <mxGeometry x="276" y="365" width="130" height="60" as="geometry" />
        </mxCell>
        <mxCell id="wWhdxqxr-nTp6pwCKcx2-5" value="&lt;font style=&quot;font-size: 15px;&quot;&gt;Badges Interface&lt;/font&gt;" style="text;html=1;strokeColor=none;fillColor=none;align=center;verticalAlign=middle;whiteSpace=wrap;rounded=0;" vertex="1" parent="1">
          <mxGeometry x="479" y="412" width="60" height="30" as="geometry" />
        </mxCell>
        <mxCell id="wWhdxqxr-nTp6pwCKcx2-6" value="" style="shape=providedRequiredInterface;html=1;verticalLabelPosition=bottom;sketch=0;direction=west;" vertex="1" parent="1">
          <mxGeometry x="931" y="330" width="20" height="16.5" as="geometry" />
        </mxCell>
        <mxCell id="wWhdxqxr-nTp6pwCKcx2-7" value="" style="endArrow=none;html=1;rounded=0;" edge="1" parent="1">
          <mxGeometry relative="1" as="geometry">
            <mxPoint x="851" y="338.83" as="sourcePoint" />
            <mxPoint x="931" y="338.83" as="targetPoint" />
          </mxGeometry>
        </mxCell>
        <mxCell id="wWhdxqxr-nTp6pwCKcx2-8" value="" style="endArrow=none;html=1;rounded=0;" edge="1" parent="1">
          <mxGeometry relative="1" as="geometry">
            <mxPoint x="951" y="339" as="sourcePoint" />
            <mxPoint x="1250" y="340" as="targetPoint" />
          </mxGeometry>
        </mxCell>
        <mxCell id="wWhdxqxr-nTp6pwCKcx2-10" value="&lt;font style=&quot;font-size: 15px;&quot;&gt;DB Battle Interface&lt;/font&gt;" style="text;html=1;strokeColor=none;fillColor=none;align=center;verticalAlign=middle;whiteSpace=wrap;rounded=0;" vertex="1" parent="1">
          <mxGeometry x="904" y="288" width="77" height="30" as="geometry" />
        </mxCell>
        <mxCell id="wWhdxqxr-nTp6pwCKcx2-11" value="" style="endArrow=none;html=1;rounded=0;" edge="1" parent="1">
          <mxGeometry relative="1" as="geometry">
            <mxPoint x="750" y="562.9" as="sourcePoint" />
            <mxPoint x="830" y="480" as="targetPoint" />
            <Array as="points">
              <mxPoint x="750" y="510" />
              <mxPoint x="830" y="510" />
            </Array>
          </mxGeometry>
        </mxCell>
        <mxCell id="wWhdxqxr-nTp6pwCKcx2-12" value="" style="shape=providedRequiredInterface;html=1;verticalLabelPosition=bottom;sketch=0;direction=north;" vertex="1" parent="1">
          <mxGeometry x="820" y="459.25" width="18.25" height="20" as="geometry" />
        </mxCell>
        <mxCell id="wWhdxqxr-nTp6pwCKcx2-13" value="" style="endArrow=none;html=1;rounded=0;exitX=1;exitY=0.5;exitDx=0;exitDy=0;exitPerimeter=0;" edge="1" parent="1" source="wWhdxqxr-nTp6pwCKcx2-12">
          <mxGeometry relative="1" as="geometry">
            <mxPoint x="830" y="420" as="sourcePoint" />
            <mxPoint x="829" y="400" as="targetPoint" />
          </mxGeometry>
        </mxCell>
        <mxCell id="wWhdxqxr-nTp6pwCKcx2-14" value="&lt;span style=&quot;font-size: 15px;&quot;&gt;Battle GitHub Interface&lt;/span&gt;" style="text;html=1;strokeColor=none;fillColor=none;align=center;verticalAlign=middle;whiteSpace=wrap;rounded=0;" vertex="1" parent="1">
          <mxGeometry x="849" y="452" width="81" height="30" as="geometry" />
        </mxCell>
        <mxCell id="wWhdxqxr-nTp6pwCKcx2-15" value="" style="endArrow=none;html=1;rounded=0;" edge="1" parent="1">
          <mxGeometry relative="1" as="geometry">
            <mxPoint x="720" y="680" as="sourcePoint" />
            <mxPoint x="720" y="400" as="targetPoint" />
          </mxGeometry>
        </mxCell>
        <mxCell id="wWhdxqxr-nTp6pwCKcx2-16" value="" style="endArrow=none;html=1;rounded=0;" edge="1" parent="1">
          <mxGeometry relative="1" as="geometry">
            <mxPoint x="720" y="680" as="sourcePoint" />
            <mxPoint x="780" y="680" as="targetPoint" />
          </mxGeometry>
        </mxCell>
        <mxCell id="wWhdxqxr-nTp6pwCKcx2-17" value="" style="shape=providedRequiredInterface;html=1;verticalLabelPosition=bottom;sketch=0;direction=west;" vertex="1" parent="1">
          <mxGeometry x="780" y="672" width="20" height="16.5" as="geometry" />
        </mxCell>
        <mxCell id="wWhdxqxr-nTp6pwCKcx2-18" value="" style="endArrow=none;html=1;rounded=0;" edge="1" parent="1">
          <mxGeometry relative="1" as="geometry">
            <mxPoint x="800" y="680" as="sourcePoint" />
            <mxPoint x="960" y="680" as="targetPoint" />
          </mxGeometry>
        </mxCell>
        <mxCell id="wWhdxqxr-nTp6pwCKcx2-19" value="&lt;font style=&quot;font-size: 15px;&quot;&gt;Mail Manager&lt;/font&gt;" style="whiteSpace=wrap;html=1;align=center;" vertex="1" parent="1">
          <mxGeometry x="960" y="655" width="130" height="55" as="geometry" />
        </mxCell>
        <mxCell id="wWhdxqxr-nTp6pwCKcx2-20" value="&lt;font style=&quot;font-size: 15px;&quot;&gt;&amp;nbsp;Mail Interface&lt;/font&gt;" style="text;html=1;strokeColor=none;fillColor=none;align=center;verticalAlign=middle;whiteSpace=wrap;rounded=0;" vertex="1" parent="1">
          <mxGeometry x="751" y="700" width="78" height="26" as="geometry" />
        </mxCell>
        <mxCell id="8qhot_8s8agM4IrT1Teh-3" value="" style="shape=providedRequiredInterface;html=1;verticalLabelPosition=bottom;sketch=0;direction=west;" vertex="1" parent="1">
          <mxGeometry x="652" y="630" width="20" height="20" as="geometry" />
        </mxCell>
        <mxCell id="8qhot_8s8agM4IrT1Teh-5" value="" style="verticalLabelPosition=bottom;verticalAlign=top;html=1;shape=mxgraph.basic.arc;startAngle=0.4904621378820819;endAngle=0.0015914963824541276;direction=south;" vertex="1" parent="1">
          <mxGeometry x="708.94" y="627.06" width="22.25" height="24.13" as="geometry" />
        </mxCell>
        <mxCell id="8qhot_8s8agM4IrT1Teh-6" value="" style="endArrow=none;html=1;rounded=0;edgeStyle=orthogonalEdgeStyle;entryX=0.5;entryY=1;entryDx=0;entryDy=0;" edge="1" parent="1" target="ndG1EjZOAp5VlCnFYyIg-7">
          <mxGeometry relative="1" as="geometry">
            <mxPoint x="730" y="640" as="sourcePoint" />
            <mxPoint x="890" y="640" as="targetPoint" />
          </mxGeometry>
        </mxCell>
        <mxCell id="8qhot_8s8agM4IrT1Teh-7" value="" style="endArrow=none;html=1;rounded=0;edgeStyle=orthogonalEdgeStyle;" edge="1" parent="1">
          <mxGeometry relative="1" as="geometry">
            <mxPoint x="672" y="640" as="sourcePoint" />
            <mxPoint x="710" y="640" as="targetPoint" />
          </mxGeometry>
        </mxCell>
        <mxCell id="8qhot_8s8agM4IrT1Teh-8" value="&lt;span style=&quot;font-size: 15px;&quot;&gt;Solution Evaluation Interface&amp;nbsp;&lt;/span&gt;" style="text;html=1;strokeColor=none;fillColor=none;align=center;verticalAlign=middle;whiteSpace=wrap;rounded=0;" vertex="1" parent="1">
          <mxGeometry x="623" y="668" width="72" height="30" as="geometry" />
        </mxCell>
        <mxCell id="8qhot_8s8agM4IrT1Teh-9" value="" style="verticalLabelPosition=bottom;verticalAlign=top;html=1;shape=mxgraph.basic.arc;startAngle=0.4904621378820819;endAngle=0.0015914963824541276;direction=west;" vertex="1" parent="1">
          <mxGeometry x="581" y="546" width="24.13" height="22.25" as="geometry" />
        </mxCell>
        <mxCell id="8qhot_8s8agM4IrT1Teh-10" value="" style="endArrow=none;html=1;rounded=0;edgeStyle=orthogonalEdgeStyle;exitX=0.424;exitY=0.995;exitDx=0;exitDy=0;exitPerimeter=0;entryX=0.51;entryY=0.993;entryDx=0;entryDy=0;entryPerimeter=0;" edge="1" parent="1">
          <mxGeometry relative="1" as="geometry">
            <mxPoint x="592" y="240" as="sourcePoint" />
            <mxPoint x="591.7280000000001" y="546.3100000000002" as="targetPoint" />
          </mxGeometry>
        </mxCell>
        <mxCell id="8qhot_8s8agM4IrT1Teh-11" value="" style="shape=providedRequiredInterface;html=1;verticalLabelPosition=bottom;sketch=0;direction=west;" vertex="1" parent="1">
          <mxGeometry x="622" y="762" width="20" height="20" as="geometry" />
        </mxCell>
        <mxCell id="8qhot_8s8agM4IrT1Teh-12" value="" style="endArrow=none;html=1;rounded=0;edgeStyle=orthogonalEdgeStyle;exitX=0.432;exitY=-0.089;exitDx=0;exitDy=0;exitPerimeter=0;" edge="1" parent="1">
          <mxGeometry relative="1" as="geometry">
            <mxPoint x="592.7058400000001" y="568.2302500000001" as="sourcePoint" />
            <mxPoint x="622.49" y="772.09" as="targetPoint" />
            <Array as="points">
              <mxPoint x="593" y="772" />
            </Array>
          </mxGeometry>
        </mxCell>
        <mxCell id="8qhot_8s8agM4IrT1Teh-13" value="&lt;font style=&quot;font-size: 15px;&quot;&gt;&amp;nbsp;Mail Interface&lt;/font&gt;" style="text;html=1;strokeColor=none;fillColor=none;align=center;verticalAlign=middle;whiteSpace=wrap;rounded=0;" vertex="1" parent="1">
          <mxGeometry x="587" y="795" width="95" height="30" as="geometry" />
        </mxCell>
        <mxCell id="8qhot_8s8agM4IrT1Teh-14" value="" style="endArrow=none;html=1;rounded=0;edgeStyle=orthogonalEdgeStyle;entryX=0.5;entryY=1;entryDx=0;entryDy=0;" edge="1" parent="1" target="wWhdxqxr-nTp6pwCKcx2-19">
          <mxGeometry relative="1" as="geometry">
            <mxPoint x="642" y="772" as="sourcePoint" />
            <mxPoint x="802" y="772" as="targetPoint" />
          </mxGeometry>
        </mxCell>
        <mxCell id="8qhot_8s8agM4IrT1Teh-15" value="" style="shape=providedRequiredInterface;html=1;verticalLabelPosition=bottom;sketch=0;direction=north;" vertex="1" parent="1">
          <mxGeometry x="648" y="273" width="23.25" height="21.25" as="geometry" />
        </mxCell>
        <mxCell id="8qhot_8s8agM4IrT1Teh-16" value="&lt;font style=&quot;font-size: 15px;&quot;&gt;Battle Interface&lt;/font&gt;" style="text;html=1;strokeColor=none;fillColor=none;align=center;verticalAlign=middle;whiteSpace=wrap;rounded=0;" vertex="1" parent="1">
          <mxGeometry x="675" y="273" width="60" height="30" as="geometry" />
        </mxCell>
        <mxCell id="8qhot_8s8agM4IrT1Teh-17" value="" style="endArrow=none;html=1;rounded=0;edgeStyle=orthogonalEdgeStyle;exitX=1;exitY=0.5;exitDx=0;exitDy=0;exitPerimeter=0;entryX=0.859;entryY=1;entryDx=0;entryDy=0;entryPerimeter=0;" edge="1" parent="1" source="8qhot_8s8agM4IrT1Teh-15" target="FveGNnCPDgA2NS3E9Qgu-24">
          <mxGeometry relative="1" as="geometry">
            <mxPoint x="659" y="266" as="sourcePoint" />
            <mxPoint x="659" y="246" as="targetPoint" />
            <Array as="points">
              <mxPoint x="660" y="260" />
              <mxPoint x="660" y="260" />
            </Array>
          </mxGeometry>
        </mxCell>
        <mxCell id="8qhot_8s8agM4IrT1Teh-18" value="" style="endArrow=none;html=1;rounded=0;edgeStyle=orthogonalEdgeStyle;exitX=0;exitY=0.5;exitDx=0;exitDy=0;exitPerimeter=0;entryX=0.051;entryY=0.004;entryDx=0;entryDy=0;entryPerimeter=0;" edge="1" parent="1" source="8qhot_8s8agM4IrT1Teh-15" target="FveGNnCPDgA2NS3E9Qgu-29">
          <mxGeometry relative="1" as="geometry">
            <mxPoint x="680" y="310" as="sourcePoint" />
            <mxPoint x="700" y="310" as="targetPoint" />
            <Array as="points">
              <mxPoint x="660" y="306" />
              <mxPoint x="660" y="306" />
            </Array>
          </mxGeometry>
        </mxCell>
        <mxCell id="OmAhPFli5LdtNoxJ66Cw-5" value="" style="endArrow=none;html=1;rounded=0;edgeStyle=orthogonalEdgeStyle;entryX=0.5;entryY=1;entryDx=0;entryDy=0;exitX=1;exitY=0.5;exitDx=0;exitDy=0;exitPerimeter=0;" edge="1" parent="1" source="8qhot_8s8agM4IrT1Teh-3" target="FveGNnCPDgA2NS3E9Qgu-9">
          <mxGeometry relative="1" as="geometry">
            <mxPoint x="650" y="640" as="sourcePoint" />
            <mxPoint x="360" y="330" as="targetPoint" />
            <Array as="points">
              <mxPoint x="380" y="640" />
              <mxPoint x="380" y="470" />
              <mxPoint x="260" y="470" />
              <mxPoint x="260" y="330" />
              <mxPoint x="320" y="330" />
            </Array>
          </mxGeometry>
        </mxCell>
        <mxCell id="OmAhPFli5LdtNoxJ66Cw-9" value="" style="endArrow=none;html=1;rounded=0;edgeStyle=orthogonalEdgeStyle;exitX=0.431;exitY=1;exitDx=0;exitDy=0;exitPerimeter=0;entryX=1;entryY=0.5;entryDx=0;entryDy=0;entryPerimeter=0;" edge="1" parent="1" source="4QUl3p5zkX5HzNQif8Eu-3" target="OmAhPFli5LdtNoxJ66Cw-16">
          <mxGeometry relative="1" as="geometry">
            <mxPoint x="883" y="620" as="sourcePoint" />
            <mxPoint x="1350" y="620" as="targetPoint" />
            <Array as="points">
              <mxPoint x="841" y="620" />
            </Array>
          </mxGeometry>
        </mxCell>
        <mxCell id="OmAhPFli5LdtNoxJ66Cw-10" value="" style="endArrow=none;html=1;rounded=0;edgeStyle=orthogonalEdgeStyle;exitX=0.75;exitY=1;exitDx=0;exitDy=0;entryX=1;entryY=0.5;entryDx=0;entryDy=0;entryPerimeter=0;" edge="1" parent="1" source="wWhdxqxr-nTp6pwCKcx2-19" target="OmAhPFli5LdtNoxJ66Cw-11">
          <mxGeometry relative="1" as="geometry">
            <mxPoint x="1090" y="740" as="sourcePoint" />
            <mxPoint x="1410" y="770" as="targetPoint" />
            <Array as="points">
              <mxPoint x="1057" y="770" />
              <mxPoint x="1347" y="770" />
            </Array>
          </mxGeometry>
        </mxCell>
        <mxCell id="OmAhPFli5LdtNoxJ66Cw-11" value="" style="shape=providedRequiredInterface;html=1;verticalLabelPosition=bottom;sketch=0;direction=west;" vertex="1" parent="1">
          <mxGeometry x="1347" y="759" width="21" height="20" as="geometry" />
        </mxCell>
        <mxCell id="OmAhPFli5LdtNoxJ66Cw-12" value="&lt;font style=&quot;font-size: 15px;&quot;&gt;Mail Server Interface&lt;/font&gt;" style="text;html=1;strokeColor=none;fillColor=none;align=center;verticalAlign=middle;whiteSpace=wrap;rounded=0;" vertex="1" parent="1">
          <mxGeometry x="1318" y="793" width="78" height="26" as="geometry" />
        </mxCell>
        <mxCell id="OmAhPFli5LdtNoxJ66Cw-13" value="" style="endArrow=none;html=1;rounded=0;edgeStyle=orthogonalEdgeStyle;" edge="1" parent="1">
          <mxGeometry relative="1" as="geometry">
            <mxPoint x="1368" y="770" as="sourcePoint" />
            <mxPoint x="1528" y="770" as="targetPoint" />
          </mxGeometry>
        </mxCell>
        <mxCell id="OmAhPFli5LdtNoxJ66Cw-14" value="&lt;font style=&quot;font-size: 18px;&quot;&gt;Mail Server&lt;/font&gt;" style="whiteSpace=wrap;html=1;align=center;" vertex="1" parent="1">
          <mxGeometry x="1530" y="741" width="160" height="68" as="geometry" />
        </mxCell>
        <mxCell id="OmAhPFli5LdtNoxJ66Cw-15" value="&lt;font style=&quot;font-size: 20px;&quot;&gt;Tournament DB&lt;/font&gt;" style="whiteSpace=wrap;html=1;align=center;" vertex="1" parent="1">
          <mxGeometry x="901" y="176" width="229" height="81" as="geometry" />
        </mxCell>
        <mxCell id="OmAhPFli5LdtNoxJ66Cw-16" value="" style="shape=providedRequiredInterface;html=1;verticalLabelPosition=bottom;sketch=0;direction=west;" vertex="1" parent="1">
          <mxGeometry x="1347" y="610" width="21" height="20" as="geometry" />
        </mxCell>
        <mxCell id="OmAhPFli5LdtNoxJ66Cw-17" value="" style="endArrow=none;html=1;rounded=0;edgeStyle=orthogonalEdgeStyle;" edge="1" parent="1">
          <mxGeometry relative="1" as="geometry">
            <mxPoint x="1369" y="620" as="sourcePoint" />
            <mxPoint x="1529" y="620" as="targetPoint" />
          </mxGeometry>
        </mxCell>
        <mxCell id="OmAhPFli5LdtNoxJ66Cw-18" value="&lt;font style=&quot;font-size: 18px;&quot;&gt;GitHub Server&amp;nbsp;&lt;/font&gt;" style="whiteSpace=wrap;html=1;align=center;" vertex="1" parent="1">
          <mxGeometry x="1531" y="591" width="160" height="68" as="geometry" />
        </mxCell>
        <mxCell id="OmAhPFli5LdtNoxJ66Cw-19" value="GitHub Server Interface" style="text;whiteSpace=wrap;html=1;align=center;" vertex="1" parent="1">
          <mxGeometry x="1318" y="636" width="80" height="40" as="geometry" />
        </mxCell>
        <mxCell id="OmAhPFli5LdtNoxJ66Cw-21" value="&lt;font style=&quot;font-size: 20px;&quot;&gt;Battle DB&lt;/font&gt;" style="whiteSpace=wrap;html=1;align=center;" vertex="1" parent="1">
          <mxGeometry x="1251" y="296" width="229" height="81" as="geometry" />
        </mxCell>
        <mxCell id="OmAhPFli5LdtNoxJ66Cw-22" value="&lt;font style=&quot;font-size: 20px;&quot;&gt;Account DB&lt;/font&gt;" style="whiteSpace=wrap;html=1;align=center;" vertex="1" parent="1">
          <mxGeometry x="1080" y="52" width="229" height="81" as="geometry" />
        </mxCell>
        <mxCell id="OmAhPFli5LdtNoxJ66Cw-23" value="" style="verticalLabelPosition=bottom;verticalAlign=top;html=1;shape=mxgraph.basic.arc;startAngle=0.4904621378820819;endAngle=0.0015914963824541276;direction=west;" vertex="1" parent="1">
          <mxGeometry x="308" y="458" width="24.13" height="22.25" as="geometry" />
        </mxCell>
        <mxCell id="OmAhPFli5LdtNoxJ66Cw-24" value="" style="verticalLabelPosition=bottom;verticalAlign=top;html=1;shape=mxgraph.basic.arc;startAngle=0.4904621378820819;endAngle=0.0015914963824541276;direction=west;" vertex="1" parent="1">
          <mxGeometry x="308" y="547" width="24.13" height="22.25" as="geometry" />
        </mxCell>
        <mxCell id="OmAhPFli5LdtNoxJ66Cw-25" value="" style="shape=providedRequiredInterface;html=1;verticalLabelPosition=bottom;sketch=0;direction=north;" vertex="1" parent="1">
          <mxGeometry x="312.75" y="700.25" width="16.5" height="20" as="geometry" />
        </mxCell>
        <mxCell id="OmAhPFli5LdtNoxJ66Cw-27" value="" style="endArrow=none;html=1;rounded=0;entryX=0.406;entryY=-0.091;entryDx=0;entryDy=0;entryPerimeter=0;" edge="1" parent="1">
          <mxGeometry relative="1" as="geometry">
            <mxPoint x="320" y="700" as="sourcePoint" />
            <mxPoint x="320.33321999999976" y="569.27475" as="targetPoint" />
          </mxGeometry>
        </mxCell>
        <mxCell id="OmAhPFli5LdtNoxJ66Cw-28" value="&lt;font style=&quot;font-size: 20px;&quot;&gt;Badges DB&lt;/font&gt;" style="whiteSpace=wrap;html=1;align=center;" vertex="1" parent="1">
          <mxGeometry x="222" y="782" width="229" height="81" as="geometry" />
        </mxCell>
        <mxCell id="OmAhPFli5LdtNoxJ66Cw-29" value="" style="endArrow=none;html=1;rounded=0;edgeStyle=orthogonalEdgeStyle;exitX=0;exitY=0.5;exitDx=0;exitDy=0;exitPerimeter=0;" edge="1" parent="1" source="OmAhPFli5LdtNoxJ66Cw-25">
          <mxGeometry relative="1" as="geometry">
            <mxPoint x="320" y="740" as="sourcePoint" />
            <mxPoint x="321" y="780" as="targetPoint" />
          </mxGeometry>
        </mxCell>
        <mxCell id="OmAhPFli5LdtNoxJ66Cw-30" value="" style="endArrow=none;html=1;rounded=0;edgeStyle=orthogonalEdgeStyle;exitX=0.492;exitY=-0.026;exitDx=0;exitDy=0;exitPerimeter=0;" edge="1" parent="1" source="OmAhPFli5LdtNoxJ66Cw-23" target="OmAhPFli5LdtNoxJ66Cw-24">
          <mxGeometry relative="1" as="geometry">
            <mxPoint x="320" y="500" as="sourcePoint" />
            <mxPoint x="360" y="500" as="targetPoint" />
          </mxGeometry>
        </mxCell>
        <mxCell id="OmAhPFli5LdtNoxJ66Cw-31" value="" style="endArrow=none;html=1;rounded=0;edgeStyle=orthogonalEdgeStyle;exitX=0.492;exitY=-0.026;exitDx=0;exitDy=0;exitPerimeter=0;entryX=0.494;entryY=1.006;entryDx=0;entryDy=0;entryPerimeter=0;" edge="1" parent="1" target="OmAhPFli5LdtNoxJ66Cw-23">
          <mxGeometry relative="1" as="geometry">
            <mxPoint x="320" y="425" as="sourcePoint" />
            <mxPoint x="320" y="450" as="targetPoint" />
          </mxGeometry>
        </mxCell>
        <mxCell id="OmAhPFli5LdtNoxJ66Cw-32" value="&lt;font style=&quot;font-size: 15px;&quot;&gt;Badges DB Interface&lt;/font&gt;" style="text;html=1;strokeColor=none;fillColor=none;align=center;verticalAlign=middle;whiteSpace=wrap;rounded=0;" vertex="1" parent="1">
          <mxGeometry x="340" y="697" width="80" height="30" as="geometry" />
        </mxCell>
      </root>
    </mxGraphModel>
  </diagram>
</mxfile>
